<svg fill="rgb(128, 128, 128)" version="1.1" xmlns="http://www.w3.org/2000/svg" width="976" height="1024" viewBox="0 0 976 1024">
<path d="M261.705 165.742c0 4.153-4.99 8.306-10.802 8.306-19.108 0-41.552 30.749-36.559 49.858 2.496 9.145 1.657 18.28-2.496 20.765-3.321 1.657-8.306 14.955-10.802 28.253-6.649 33.238 14.121 72.282 41.552 78.931l21.604 5.81-18.28 16.612c-24.922 23.263-29.913 51.514-12.459 78.111 11.637 18.28 12.459 26.596 4.153 54.838-9.965 33.238-2.496 76.437 18.28 104.688 9.965 13.298 39.055 14.121 39.055 1.657 0-4.99 5.81-7.479 12.459-4.153 7.479 2.496 12.459 0 12.459-8.306 0-9.963 8.306-6.649 29.080 12.461 16.612 14.121 34.902 25.757 41.552 25.757 14.955 0 17.451 62.319 3.321 97.219-4.99 12.461-12.459 30.749-16.612 39.88-17.451 45.705-33.238 104.688-28.253 112.176 3.321 4.99 14.955 4.153 34.066-4.153 26.596-10.802 75.617-9.145 86.419 3.321 2.496 2.496 17.451 14.955 34.902 27.414 16.612 12.461 34.902 28.253 41.552 34.066 41.552 40.715 101.374 72.282 136.269 72.282h27.414l-10.802-34.902c-19.108-63.154-65.638-167.007-81.425-182.799-8.306-8.306-14.955-26.596-14.955-43.208 0-49.858 5.81-54.838 55.67-54.838 55.67 0 77.274-10.802 77.274-38.216 0-10.802 5.81-29.913 13.298-40.715 7.479-11.637 11.637-28.253 9.145-36.559-2.496-9.963 0.837-18.28 7.479-20.765 16.612-6.649 14.121-27.414-5.81-55.67-11.637-16.612-14.955-28.253-9.145-34.902 4.153-5.81 6.649-15.794 5.81-22.438s-4.99-38.216-8.306-69.795c-4.99-49.018-9.963-61.481-34.066-88.076-39.055-42.369-108.841-74.776-164.511-77.274-24.1-0.837-49.858-6.649-57.324-12.461-6.649-5.81-18.28-9.963-24.1-8.306-6.649 1.657-21.604-8.306-34.066-21.604-24.1-25.757-37.396-24.922-23.261 1.657 8.306 15.794 6.649 16.612-43.208 12.461-34.066-3.321-57.324-9.963-68.966-19.947-18.28-17.451-36.559-20.767-36.559-7.479z"></path>
</svg>
