<svg version="1.2" xmlns="http://www.w3.org/2000/svg" viewBox="0 0 1138 1280" width="1138" height="1280"><style>.a{fill:#607d8b}</style><path fill-rule="evenodd" class="a" d="m695.8 1.1c25 2.5 57.4 9.6 104.5 22.9 29.5 8.3 45.4 12.4 59.5 15.4 22.1 4.6 56.1 19 77.8 32.9 8.1 5.2 19.9 15 26.1 21.7 7.9 8.6 13.1 16.6 18.8 28.9 9.4 20.5 16 31.2 34.7 55.9 18.2 24.3 20 26.9 27.2 38.9 17.7 29.8 27.5 62.7 31 104.2 1.5 17.7 0.6 66-1.5 87.6-0.9 8.2-1.8 18-2.2 21.6-1.8 17.6 5.3 39.9 20.1 63.8 4.9 7.8 25.1 37.3 34.1 49.6 12.1 16.7 15.4 33.4 8.8 45.6-3.4 6.1-8.5 10.2-25.8 20.4-6.5 3.8-13.4 8.3-15.2 10-3.2 2.8-3.5 3.7-4.9 13-0.8 5.5-2.1 19.3-3 30.6-2.7 36.7-5 47.8-14.5 67.8-3.2 6.9-6.4 14.6-7 17-1.3 5.1-2.9 28.7-3 44.1-0.1 22.5-6 36.7-18.8 44.9-3.5 2.2-7.8 3.6-17.2 5.5-21.3 4.3-39.2 5.6-92 6.7-27.2 0.5-55 1.5-61.7 2.2-11.3 1.2-12.5 1.5-15.2 4.1-5.1 4.9-12.9 23.8-26.1 63.6-19 56.8-28.8 102.5-33.5 156.2l-0.6 6.8 77.8 78.3c67.6 68 101.4 102.7 108.8 111.6 1.8 2.3 1.9 2.4 0.2 1.8-6.7-2.5-34.3-9.4-50.7-12.7-57.7-11.8-118.3-15.2-193-10.9-40.9 2.3-69.2 5.1-161.5 15.9-109.6 12.9-102.2 12.3-166.5 12.8-38.5 0.2-60 0-67.5-0.8-43.4-4.6-96.4-15.5-132.5-27.3-20.8-6.8-39-13.8-39-14.9 0-3.2 34.2-50.3 72.1-99.3 51.2-66.2 71.6-94.6 91.6-128 17.6-29.2 33.7-62.7 34.8-72.4 1.4-12.4-3.8-25.3-11.9-29.4-4.5-2.4-5.6-1.9-10.3 4.2-5.4 7-6.4 12.2-7.3 36.6-0.4 12.1-1.1 22.8-1.5 23.8-1.4 3.5-7.2 0.5-23-11.9-3.9-3-9.5-6.4-12.5-7.5-5.1-1.9-6.1-2-14.1-0.9-6.7 1-10.1 1-16 0-24.7-4-42.6-19.6-48.2-41.6-3.3-13-17.2-38.8-30.7-57-7.7-10.3-25.2-29-28-29.9-2.6-0.8-5.7 1-7.5 4.5-3.6 7-1 30.8 9.1 82.2 5 25.7 4.7 23.8 3.5 23.8-1.9 0-8.6-6.4-16.1-15.3-8.9-10.6-13.1-13.7-19.5-14.5l-4.4-0.5-2.4 5.4c-6.1 13.8-9.6 27.4-15.7 60.4-6.1 33.2-10.7 48.9-19.8 67.5-2.5 5-3.1 5.5-6.3 5.8-4.6 0.4-6.2-1.5-8.7-10.3-2.7-9.3-3.8-16.7-5.7-37-1.7-18.2-3.8-32.5-5.5-37.1-1.8-4.7-6-8.4-9.5-8.4-5.6 0-12.5 5.9-26.7 23-8.4 10.1-15.4 16.5-20.9 19-6.4 2.9-10.9-4.5-10.9-17.7 0-7.7 0.5-9.8 3.5-17.1 6.5-15.8 15.7-29.5 41.4-61.7 26.6-33.2 36.6-52.7 39-76 0.6-6.1 1.8-18.8 2.6-28.3 2.4-28.1 4.5-35.9 16-60.2 8.3-17.7 9.5-21.3 9.5-29.3 0-9.4-1.8-11.3-12.5-12.8-7.1-1-11.1-2.5-11.9-4.5-0.7-1.9 5.3-8.6 20.5-22.7 19.8-18.3 24.4-26.1 25.6-43.2 0.8-11.6-1.9-21.4-11.3-40.5-4.2-8.5-10.2-22.5-13.4-31.1-13.2-35.3-25.4-61.3-38-80.9-9.4-14.6-14.3-24.3-18.2-36-3.1-9-3.2-10.2-3.2-24.5 0.2-45.1 21.6-98.1 58.1-143.8 11.4-14.3 14.3-18.6 14.3-21.4 0-6.2-4.9-9.3-16-10.2-6.9-0.6-7.5-0.8-7.8-2.9-0.5-3.1 1.8-5.5 10.1-10.9 8.3-5.4 17.9-9.5 28.9-12.2 8.6-2.1 27.5-5.1 32.2-5.1 5.7 0 3.5-5.4-4.1-10.1-3.5-2.2-4.4-5.5-1.7-6.6 2.4-0.9 22.3 1.5 35.6 4.3 19.3 4.1 43.8 13.2 64.5 23.9 12.5 6.5 18.6 7.9 31.8 7.2 26.4-1.3 49.1-18.4 80-60.2 26.7-36.1 42-54.1 65.9-78 18.4-18.3 37.1-33.9 54.9-45.8 30.1-20 53.9-26.9 108.2-31.3 22.8-1.8 78.4-2.6 91-1.3zm-382.1 410c-3.5 3.3-6.2 9.4-8.6 20-1.8 7.8-2.2 12.5-2.2 27.9 0 21.7 1.2 29.9 10.5 70.5 3.3 14.3 6.9 31.8 8 39 5 33.2 9.1 46.3 19.5 62.2 3.5 5.4 6.4 10.3 6.4 11 0 0.6-2.5 3.4-5.6 6.1-4.4 3.8-5.5 5.3-5 6.9 0.7 2.3 11.1 10 27.6 20.3 21.5 13.5 30.4 20.3 41 30.9 10.6 10.7 17.5 20.7 14.8 21.5-0.7 0.3-4.3 0.9-8 1.5-9.8 1.4-15.4 4.2-17.5 8.6l-1.8 3.7 3.2 2.8c5.4 4.9 13.5 7.4 24.3 7.4 11.5 0.1 17.6-2.3 21.7-8.5 2.3-3.5 2.8-5.8 4.1-20.7 3.5-38.7-3.9-72.7-21.7-99.2-2.7-4.1-9.1-12.7-14.1-19-24.3-30.6-44.1-66.3-56-100.6-4.2-12.1-10-34.5-14.6-56.7-4-19.6-6.7-26.6-13.2-34.6-3.2-3.9-3.8-4.3-7-3.7-1.9 0.3-4.5 1.5-5.8 2.7zm121.5 355.5c-20.2 6-31.2 20-23.2 29.5 10.7 12.7 28.8 6.8 34-11.1 1.3-4.5 1.4-6.5 0.5-10.9-1-4.9-3.4-9.1-5.2-9.1-0.3 0-3.1 0.7-6.1 1.6z"/></svg>