<svg fill="rgb(128, 128, 128)" version="1.1" xmlns="http://www.w3.org/2000/svg" width="1024" height="1024" viewBox="0 0 1024 1024">
<path d="M430.176 181.747c-28.186 5.456-83.646 61.828-100.916 102.74-16.362 40.008-16.362 176.382 0 219.114 6.366 17.271 20.004 51.82 30.908 77.28 30.908 79.098 13.638 107.282-100.008 163.65-119.104 58.186-148.198 96.378-148.198 190.020 0 44.548 3.637 54.554 26.37 78.188l26.37 26.37h702.799l21.82-22.728c19.096-18.187 22.728-30.908 22.728-76.374 0-98.194-23.634-128.194-154.562-196.384-65.458-33.642-85.462-49.096-97.286-72.732-13.638-29.094-13.638-33.642 5.456-88.191 49.096-137.284 58.186-241.84 24.547-304.576-20.004-38.182-70.916-83.646-106.374-93.642-30.908-9.088-110.922-9.996-153.654-2.724z"></path>
</svg>
