<?xml version="1.0" standalone="no"?>
<!DOCTYPE svg PUBLIC "-//W3C//DTD SVG 20010904//EN"
 "http://www.w3.org/TR/2001/REC-SVG-20010904/DTD/svg10.dtd">
<svg version="1.0" xmlns="http://www.w3.org/2000/svg"
 width="839.000000pt" height="1280.000000pt" viewBox="0 0 839.000000 1280.000000"
 preserveAspectRatio="xMidYMid meet">
<metadata>
Created by potrace 1.15, written by Peter Selinger 2001-2017
</metadata>
<g transform="translate(0.000000,1280.000000) scale(0.100000,-0.100000)"
fill="#607d8b" stroke="none">
<path d="M3465 12784 c-121 -16 -248 -43 -459 -95 -242 -61 -366 -86 -536
-108 -363 -48 -734 -178 -1085 -381 -758 -436 -1165 -1022 -1084 -1563 45
-302 209 -570 528 -859 l84 -76 -51 -144 c-138 -390 -192 -611 -192 -788 0
-109 8 -141 58 -222 33 -54 34 -62 30 -123 -5 -54 -17 -88 -75 -208 -39 -78
-128 -236 -198 -352 -70 -115 -163 -268 -207 -340 -101 -166 -199 -364 -239
-485 -26 -78 -32 -112 -33 -190 -1 -80 2 -101 21 -136 39 -73 95 -110 260
-170 54 -19 116 -45 138 -59 119 -70 150 -171 104 -335 -20 -70 -20 -83 -9
-200 17 -179 62 -441 110 -637 l41 -168 3 -225 c3 -246 10 -285 65 -372 36
-56 53 -68 172 -119 164 -71 348 -115 584 -139 92 -10 575 -29 723 -30 l63 0
84 -83 c71 -72 90 -98 133 -188 45 -94 69 -172 87 -283 12 -71 6 -314 -10
-423 -31 -208 -97 -447 -191 -692 -243 -630 -720 -1430 -1202 -2019 l-85 -104
-7 -231 c-4 -128 -6 -234 -3 -236 7 -9 312 31 422 55 491 110 875 305 1646
836 406 279 694 472 871 583 732 460 1443 764 2229 955 128 31 438 94 519 106
l48 7 -6 91 c-4 50 -16 145 -26 211 -34 216 -68 330 -305 1025 -147 432 -190
647 -189 940 1 193 13 278 63 446 l21 71 162 68 c324 136 490 230 606 346 43
43 127 158 266 368 112 168 287 419 390 556 204 275 255 363 290 505 32 129
67 434 111 975 8 98 43 279 95 485 77 309 85 364 84 585 -3 462 -98 1012 -249
1430 -56 157 -170 395 -250 524 -157 254 -353 460 -575 603 -100 65 -165 99
-338 174 -181 79 -299 148 -482 284 -89 66 -190 136 -225 155 -211 118 -555
188 -1140 230 -240 18 -341 31 -651 86 -547 96 -774 115 -1009 83z"/>
</g>
</svg>
