<svg fill="rgb(128, 128, 128)" version="1.1" xmlns="http://www.w3.org/2000/svg" width="1024" height="1024" viewBox="0 0 1024 1024">
<path d="M400.739 171.393c-6.204 6.204-20.385 12.408-31.917 12.408-44.325 0-93.087 69.147-119.691 171.101-15.957 58.509-17.739 74.473-8.868 110.828 26.595 109.932 45.223 149.823 95.754 203.915 20.385 21.278 36.352 44.325 36.352 50.531s-12.408 36.352-28.377 66.501c-23.049 45.223-25.713 55.862-15.074 62.939 7.101 4.435 22.167 5.319 34.581 1.769 40.787-11.529 76.244-4.435 125.004 23.945 26.595 15.957 49.653 31.023 52.3 34.581 11.529 16.845 118.8 92.205 145.395 102.843 39.89 16.845 67.374 16.845 67.374 0.891 0-7.099-15.957-55.862-36.352-109.053-36.352-94.856-55.862-175.535-46.991-190.61 2.664-3.537 13.303-7.099 23.945-7.099 33.686 0 45.223-14.176 47.871-58.509 1.769-23.945 8.868-48.762 15.957-56.735 18.614-20.385 16.845-44.325-5.319-67.374-18.614-19.509-18.614-20.385-2.664-62.939 7.973-23.049 20.385-46.991 27.482-52.3 6.204-5.319 11.529-19.509 11.529-31.917 0-37.233-26.595-103.726-44.325-109.053-8.868-2.664-17.739-10.639-20.385-16.845-2.664-7.099-28.377-23.049-56.735-37.233-28.377-13.303-57.63-29.251-64.719-35.457-21.278-17.738-187.070-23.942-202.144-7.099z"></path>
</svg>
